
<svg width="60" height="60" viewBox="0 0 60 60" xmlns="http://www.w3.org/2000/svg">
  <path d="M3 3h6v6H3V3zm12 0h6v6h-6V3zm12 0h6v6h-6V3zm12 0h6v6h-6V3zm12 0h6v6h-6V3zM3 15h6v6H3v-6zm12 0h6v6h-6v-6zm12 0h6v6h-6v-6zm12 0h6v6h-6v-6zm12 0h6v6h-6v-6zM3 27h6v6H3v-6zm12 0h6v6h-6v-6zm12 0h6v6h-6v-6zm12 0h6v6h-6v-6zm12 0h6v6h-6v-6zM3 39h6v6H3v-6zm12 0h6v6h-6v-6zm12 0h6v6h-6v-6zm12 0h6v6h-6v-6zm12 0h6v6h-6v-6zM3 51h6v6H3v-6zm12 0h6v6h-6v-6zm12 0h6v6h-6v-6zm12 0h6v6h-6v-6zm12 0h6v6h-6v-6z" fill="#9b87f5" fill-opacity="0.8"/>
</svg>
